PathFileType	3	(X/Y/Z)	walking_2__view1_aligned.trc
DataRate	CameraRate	NumFrames	NumMarkers	Units	OrigDataRate	OrigDataStartFrame	OrigNumFrames
100.0	100.0	18	19	mm	100.0	4142	6300
Frame#	Time	pelvis			neck			head			hip_left			hip_right			knee_left			knee_right			ankle_left			ankle_right			heel_left			heel_right			toe_left			toe_right			shoulder_left			shoulder_right			elbow_left			elbow_right			wrist_left			wrist_right			
		X1	Y1	Z1	X2	Y2	Z2	X3	Y3	Z3	X4	Y4	Z4	X5	Y5	Z5	X6	Y6	Z6	X7	Y7	Z7	X8	Y8	Z8	X9	Y9	Z9	X10	Y10	Z10	X11	Y11	Z11	X12	Y12	Z12	X13	Y13	Z13	X14	Y14	Z14	X15	Y15	Z15	X16	Y16	Z16	X17	Y17	Z17	X18	Y18	Z18	X19	Y19	Z19	
4142	41.41000	78.228550	942.778203	100.291020	28.565267	1492.174345	206.030548	29.150897	1568.319895	357.505389	154.219914	949.461348	107.725344	2.237082	936.095039	92.856792	132.168217	523.344091	220.840887	-64.427106	530.157064	223.993833	125.433175	114.905562	179.753751	-84.203353	237.599890	-39.287848	127.223014	65.023443	147.686768	-79.549878	223.805044	-91.221187	103.100275	68.593562	365.711070	-94.856223	85.074172	46.583630	211.899416	1465.579484	174.355366	-141.973395	1421.796787	156.324158	284.839617	1189.699076	97.195673	-174.727949	1131.661484	138.740931	330.781412	928.208715	108.987174	-161.664413	907.625343	260.676255
4143	41.42000	81.839848	943.295441	97.894520	31.910487	1492.628334	204.167939	31.487740	1569.280736	355.458679	157.809474	950.047971	105.600779	5.870152	936.542900	90.188326	134.752885	522.881206	213.887056	-61.340723	532.236696	228.465820	127.009595	114.849662	167.267652	-80.870527	238.966750	-29.499569	128.621510	65.278960	134.624753	-75.977193	224.742936	-80.845034	105.281032	66.840363	352.865051	-93.547125	88.347589	57.279456	215.620658	1465.667259	174.706182	-138.285704	1422.134296	152.292841	289.527026	1189.487847	100.181904	-170.218033	1131.956771	131.897866	334.214675	928.274913	115.527084	-159.786795	905.942056	249.797013
4144	41.43000	85.451145	943.812680	95.498021	35.255708	1493.082323	202.305330	33.824584	1570.241578	353.411970	161.399034	950.634594	103.476214	9.503221	936.990760	87.519860	137.337554	522.418322	206.933224	-58.254340	534.316328	232.937808	128.586015	114.793761	154.781554	-77.537701	240.333610	-19.711290	130.020006	65.534477	121.562738	-72.404507	225.680828	-70.468882	107.461789	65.087163	340.019032	-92.238026	91.621006	67.975282	219.341901	1465.755034	175.056997	-134.598013	1422.471805	148.261524	294.214436	1189.276617	103.168136	-165.708116	1132.252057	125.054800	337.647938	928.341111	122.066994	-157.909178	904.258768	238.917771
4145	41.44000	89.062443	944.329919	93.101521	38.600928	1493.536312	200.442721	36.161428	1571.202420	351.365261	164.988595	951.221218	101.351649	13.136290	937.438620	84.851394	139.922222	521.955438	199.979393	-55.167957	536.395960	237.409795	130.162435	114.737861	142.295456	-74.204875	241.700470	-9.923011	131.418503	65.789993	108.500723	-68.831822	226.618720	-60.092729	109.642546	63.333964	327.173013	-90.928927	94.894423	78.671107	223.063144	1465.842808	175.407813	-130.910321	1422.809314	144.230208	298.901845	1189.065388	106.154368	-161.198199	1132.547344	118.211735	341.081202	928.407309	128.606904	-156.031560	902.575481	228.038529
4146	41.45000	89.545363	944.408225	92.592047	39.052622	1493.745546	200.307005	35.802360	1571.824242	350.952383	165.481309	951.284445	101.068395	13.609419	937.532005	84.115701	140.349282	521.124217	192.855444	-54.467339	537.960016	242.656347	130.862304	114.275886	131.031267	-73.113830	240.432573	4.699267	132.162442	65.438720	96.828827	-67.621680	224.281425	-44.561042	110.444942	62.063232	316.108653	-90.767961	97.217860	96.077506	223.680688	1465.652778	177.321678	-130.018107	1423.021103	142.204263	300.692050	1188.676419	111.556477	-159.605782	1132.824477	113.627435	342.256239	928.761445	138.351732	-156.934636	900.938690	218.538467
4147	41.46000	90.028283	944.486531	92.082573	39.504315	1493.954779	200.171290	35.443292	1572.446064	350.539504	165.974023	951.347671	100.785142	14.082547	937.625390	83.380009	140.776342	520.292996	185.731495	-53.766721	539.524072	247.902899	131.562172	113.813911	119.767078	-72.022785	239.164677	19.321546	132.906380	65.087447	85.156931	-66.411538	221.944129	-29.029354	111.247339	60.792500	305.044292	-90.606995	99.541298	113.483904	224.298231	1465.462747	179.235543	-129.125893	1423.232892	140.178317	302.482256	1188.287451	116.958585	-158.013365	1133.101609	109.043135	343.431277	929.115582	148.096561	-157.837712	899.301899	209.038406
4148	41.47000	90.511204	944.564837	91.573099	39.956008	1494.164013	200.035574	35.084225	1573.067886	350.126625	166.466738	951.410898	100.501889	14.555675	937.718776	82.644316	141.203402	519.461776	178.607547	-53.066103	541.088128	253.149452	132.262040	113.351936	108.502889	-70.931740	237.896781	33.943824	133.650319	64.736174	73.485035	-65.201397	219.606834	-13.497667	112.049735	59.521768	293.979931	-90.446029	101.864735	130.890302	224.915775	1465.272717	181.149408	-128.233679	1423.444681	138.152372	304.272461	1187.898483	122.360694	-156.420948	1133.378742	104.458836	344.606314	929.469718	157.841389	-158.740788	897.665108	199.538344
4149	41.48000	90.994124	944.643143	91.063625	40.407702	1494.373246	199.899858	34.725157	1573.689708	349.713747	166.959452	951.474125	100.218636	15.028803	937.812161	81.908623	141.630461	518.630555	171.483598	-52.365485	542.652184	258.396004	132.961908	112.889961	97.238700	-69.840695	236.628884	48.566103	134.394258	64.384901	61.813139	-63.991255	217.269539	2.034021	112.852132	58.251037	282.915571	-90.285063	104.188173	148.296701	225.533318	1465.082686	183.063273	-127.341464	1423.656470	136.126427	306.062666	1187.509515	127.762802	-154.828530	1133.655874	99.874536	345.781352	929.823855	167.586218	-159.643864	896.028317	190.038283
4150	41.49000	91.477044	944.721449	90.554151	40.859395	1494.582480	199.764143	34.366089	1574.311530	349.300868	167.452166	951.537352	99.935383	15.501932	937.905546	81.172931	142.057521	517.799335	164.359649	-51.664867	544.216241	263.642556	133.661776	112.427986	85.974511	-68.749650	235.360988	63.188381	135.138196	64.033628	50.141244	-62.781113	214.932243	17.565708	113.654528	56.980305	271.851210	-90.124097	106.511610	165.703099	226.150862	1464.892656	184.977138	-126.449250	1423.868259	134.100481	307.852872	1187.120547	133.164911	-153.236113	1133.933007	95.290236	346.956389	930.177991	177.331046	-160.546940	894.391526	180.538221
4151	41.50000	91.959965	944.799755	90.044677	41.311088	1494.791713	199.628427	34.007021	1574.933352	348.887989	167.944881	951.600579	99.652129	15.975060	937.998932	80.437238	142.484581	516.968114	157.235701	-50.964249	545.780297	268.889109	134.361644	111.966012	74.710321	-67.658606	234.093091	77.810660	135.882135	63.682355	38.469348	-61.570971	212.594948	33.097396	114.456925	55.709573	260.786850	-89.963130	108.835048	183.109497	226.768406	1464.702625	186.891003	-125.557036	1424.080048	132.074536	309.643077	1186.731579	138.567019	-151.643696	1134.210139	90.705936	348.131427	930.532128	187.075874	-161.450016	892.754735	171.038160
4152	41.51000	92.442885	944.878062	89.535203	41.762782	1495.000947	199.492711	33.647953	1575.555174	348.475111	168.437595	951.663806	99.368876	16.448188	938.092317	79.701545	142.911641	516.136893	150.111752	-50.263631	547.344353	274.135661	135.061512	111.504037	63.446132	-66.567561	232.825195	92.432939	136.626074	63.331082	26.797452	-60.360830	210.257653	48.629083	115.259321	54.438841	249.722489	-89.802164	111.158485	200.515896	227.385949	1464.512595	188.804868	-124.664822	1424.291837	130.048591	311.433282	1186.342611	143.969128	-150.051278	1134.487272	86.121637	349.306464	930.886265	196.820703	-162.353092	891.117944	161.538098
4153	41.52000	92.925806	944.956368	89.025729	42.214475	1495.210180	199.356996	33.288885	1576.176996	348.062232	168.930310	951.727033	99.085623	16.921317	938.185702	78.965853	143.338701	515.305673	142.987803	-49.563013	548.908409	279.382213	135.761380	111.042062	52.181943	-65.476516	231.557299	107.055217	137.370012	62.979809	15.125556	-59.150688	207.920357	64.160771	116.061718	53.168110	238.658129	-89.641198	113.481922	217.922294	228.003493	1464.322565	190.718733	-123.772608	1424.503626	128.022646	313.223488	1185.953643	149.371236	-148.458861	1134.764404	81.537337	350.481501	931.240401	206.565531	-163.256168	889.481153	152.038037
4154	41.53000	93.408726	945.034674	88.516255	42.666168	1495.419414	199.221280	32.929817	1576.798819	347.649354	169.423024	951.790260	98.802370	17.394445	938.279087	78.230160	143.765760	514.474452	135.863855	-48.862395	550.472465	284.628766	136.461248	110.580087	40.917754	-64.385471	230.289402	121.677496	138.113951	62.628536	3.453661	-57.940546	205.583062	79.692459	116.864114	51.897378	227.593768	-89.480232	115.805360	235.328692	228.621037	1464.132534	192.632598	-122.880393	1424.715415	125.996700	315.013693	1185.564675	154.773345	-146.866444	1135.041537	76.953037	351.656539	931.594538	216.310360	-164.159244	887.844362	142.537975
4155	41.54000	93.891646	945.112980	88.006780	43.117862	1495.628647	199.085564	32.570749	1577.420641	347.236475	169.915738	951.853487	98.519116	17.867573	938.372473	77.494467	144.192820	513.643232	128.739906	-48.161776	552.036521	289.875318	137.161116	110.118112	29.653565	-63.294426	229.021506	136.299774	138.857890	62.277263	-8.218235	-56.730404	203.245767	95.224146	117.666511	50.626646	216.529407	-89.319266	118.128797	252.735091	229.238580	1463.942504	194.546463	-121.988179	1424.927205	123.970755	316.803898	1185.175707	160.175453	-145.274027	1135.318669	72.368737	352.831576	931.948674	226.055188	-165.062320	886.207571	133.037914
4156	41.55000	92.913431	944.529168	88.372594	41.720503	1495.462086	199.791206	30.515845	1577.334972	347.763344	169.003773	951.144611	98.752333	16.823068	937.913719	77.992905	143.494778	512.156891	123.142812	-48.472984	552.424625	292.960705	135.530997	109.846759	20.730230	-64.265024	225.175215	150.389340	136.918140	62.389983	-17.401247	-58.036573	197.861009	110.351457	116.917974	49.127503	206.669517	-89.326758	119.043327	271.037086	227.805911	1463.846498	196.716540	-122.800982	1424.570274	123.310371	316.672214	1185.032015	165.525289	-145.545829	1135.001515	69.330697	352.405498	932.611094	235.612253	-167.142974	883.824542	124.134368
4157	41.56000	91.935215	943.945356	88.738408	40.323144	1495.295524	200.496849	28.460941	1577.249304	348.290214	168.091807	950.435735	98.985549	15.778564	937.454964	78.491342	142.796735	510.670550	117.545719	-48.784191	552.812729	296.046091	133.900878	109.575407	11.806895	-65.235623	221.328925	164.478906	134.978391	62.502702	-26.584258	-59.342741	192.476252	125.478768	116.169437	47.628361	196.809627	-89.334250	119.957858	289.339081	226.373241	1463.750492	198.886618	-123.613784	1424.213344	122.649987	316.540530	1184.888322	170.875124	-145.817632	1134.684360	66.292656	351.979419	933.273514	245.169318	-169.223628	881.441513	115.230823
4158	41.57000	90.957000	943.361543	89.104221	38.925785	1495.128962	201.202491	26.406037	1577.163636	348.817083	167.179842	949.726859	99.218765	14.734059	936.996210	78.989780	142.098692	509.184209	111.948625	-49.095398	553.200834	299.131478	132.270759	109.304054	2.883560	-66.206221	217.482634	178.568471	133.038641	62.615422	-35.767270	-60.648909	187.091494	140.606079	115.420901	46.129218	186.949737	-89.341742	120.872388	307.641076	224.940571	1463.654486	201.056695	-124.426586	1423.856414	121.989603	316.408846	1184.744630	176.224960	-146.089435	1134.367205	63.254616	351.553341	933.935933	254.726383	-171.304282	879.058484	106.327277
4159	41.58000	89.978784	942.777731	89.470035	37.528427	1494.962400	201.908133	24.351133	1577.077967	349.343952	166.267876	949.017983	99.451981	13.689554	936.537456	79.488217	141.400649	507.697868	106.351532	-49.406605	553.588938	302.216865	130.640639	109.032701	-6.039775	-67.176819	213.636344	192.658037	131.098892	62.728142	-44.950281	-61.955078	181.706737	155.733390	114.672364	44.630075	177.089847	-89.349235	121.786918	325.943071	223.507902	1463.558480	203.226773	-125.239389	1423.499484	121.329219	316.277161	1184.600937	181.574795	-146.361238	1134.050050	60.216575	351.127262	934.598353	264.283448	-173.384936	876.675455	97.423731
